<svg xmlns="http://www.w3.org/2000/svg" viewBox="0 0 338 173.51"><defs><style>.cls-1{fill:none;}.cls-2{fill:#c6ce00;}.cls-3{fill:#606060;}</style></defs><g id="Capa_2" data-name="Capa 2"><g id="Capa_1-2" data-name="Capa 1"><path class="cls-1" d="M53.61,87.65a11.21,11.21,0,0,1,5-4.6,44.39,44.39,0,0,0,7.21-13.92,71.63,71.63,0,0,0,3.4-22.5q0-8.34-3.51-13.05T55.54,28.87q-7.23,0-13.3,6.14T32.56,51.89a68.5,68.5,0,0,0-3.62,22q0,17.7,14.62,17.69a16.42,16.42,0,0,0,9.74-3.33l.19-.39Z"/><path class="cls-1" d="M89.62,84.31c-.78,1.58-1.62,3.08-2.49,4.55a13.45,13.45,0,0,1,1.34.92Z"/><path class="cls-2" d="M315.34,30.91l-3.87,10.23h-.59a24.23,24.23,0,0,0-8.33-9,21,21,0,0,0-10.81-2.74,27.18,27.18,0,0,0-18,6.94,36.15,36.15,0,0,0-3,2.94l4.42-8.42h-30.4q-16.51,37.42-17.47,39.87t-3.65,12.09H223V76.51L222.88,72l-3.15-41.07H179l-3.87,10.23h-.59a24.23,24.23,0,0,0-8.33-9,21,21,0,0,0-10.81-2.74,27.18,27.18,0,0,0-18,6.94q-8.14,6.95-13.48,20.54c-.18.46-.34.91-.51,1.37L135.73,0H107.45L98,44.62C97.71,32.5,94.24,23,87.51,16Q76.95,5.2,58,5.19,41,5.19,28,13.7T7.53,38.44A83.51,83.51,0,0,0,0,74Q0,93.4,10.71,104.29t30.36,10.89c1,0,1.9-.05,2.85-.1,2.3-10,5.62-19.88,9.38-26.84a16.42,16.42,0,0,1-9.74,3.33q-14.62,0-14.62-17.69a68.5,68.5,0,0,1,3.62-22Q36.17,41.15,42.24,35t13.3-6.14q6.65,0,10.16,4.71t3.51,13.05a71.63,71.63,0,0,1-3.4,22.5A44.39,44.39,0,0,1,58.6,83.05a8,8,0,0,1,7,.08,7.25,7.25,0,0,1,3.68,8,24.12,24.12,0,0,1,5.17-3l.23-.08c5.35-1.89,9.3-.88,11.68.31.25.12.51.27.78.43.87-1.47,1.71-3,2.49-4.55l-1.15,5.47a16,16,0,0,1,5.31,8.08c1.5,4.84,1.38,10.43.52,15.85h17.39l7-32.91c0,.94-.08,1.87-.08,2.8q0,15.29,6,23.43c.22.3.48.57.72.86A7.1,7.1,0,0,1,129,105a29.26,29.26,0,0,1,5.82-1.36l.42-1.34A64.89,64.89,0,0,1,138,94.5l.48-.84a8.41,8.41,0,0,1,10.11-2.45,7.27,7.27,0,0,1,3.88,8.68l-.21.64c-.15.37-.3.77-.46,1.18,3-.21,5.82-.41,7.22-.49h.47a9.75,9.75,0,0,1,6.47,2.26c.29-.93.6-1.84.9-2.73a8.21,8.21,0,0,1,5-5.31,8.83,8.83,0,0,1,7.82.94l3.73,2.41L182.09,103c-.51,1.72-1.15,3.76-1.85,6-.42,1.35-.92,2.94-1.44,4.65h5.33L195.51,60l7.64,52.86-1.68,3a23.13,23.13,0,0,1-7.2,8.37,18.63,18.63,0,0,1-10.42,2.67,32,32,0,0,1-8-.88v1.74l3.45,2.73a6.73,6.73,0,0,1,1.56,9.12c-.77,1.25-1.35,2.18-1.85,3-1,1.6-1.66,2.65-3.16,5.21v.67a43.62,43.62,0,0,0,11.25,1.24q13.46,0,22.73-6t16.3-19.52l31.72-60.41a69.6,69.6,0,0,0-3,19.85q0,15.29,6,23.43t17.54,8.15a23.75,23.75,0,0,0,10.74-2.38,24.84,24.84,0,0,0,8.84-8.08h.59l-.73,9h22.58L338,30.91ZM166,76.73a32.64,32.64,0,0,1-5.29,11.44q-3.33,4.27-7,4.28-6.28,0-6.29-10.45a46.44,46.44,0,0,1,4.5-20.58q4.49-9.24,10-9.24a4.79,4.79,0,0,1,4.54,2.89A17,17,0,0,1,168,62.7,52.48,52.48,0,0,1,166,76.73Zm136.33,0A32.64,32.64,0,0,1,297,88.17q-3.33,4.27-7,4.28-6.3,0-6.29-10.45a46.44,46.44,0,0,1,4.5-20.58q4.49-9.24,10-9.24a4.79,4.79,0,0,1,4.54,2.89,17,17,0,0,1,1.46,7.63A52.48,52.48,0,0,1,302.33,76.73Z"/><path class="cls-3" d="M96.07,128.83c1.79-.32,3.51-3.12,1.14-3.18C95.31,125.85,94.29,128.79,96.07,128.83Z"/><path class="cls-3" d="M125.22,129.47c1.78-.32,3.51-3.13,1.14-3.18C124.46,126.49,123.44,129.43,125.22,129.47Z"/><path class="cls-3" d="M175.67,137.09c-2.56,3.38-3.43,5.26-6.24,8.87-1.58,2-2.16,1.5-2.59-.53-1.73-8,6.38-31.39,9.57-42.11-1.52-1-3.42-.55-3.94,1.22a191.54,191.54,0,0,0-7,27.11c-.3,1.83-.95,4.74-1.21,7.7a23.8,23.8,0,0,1-3.61,6.54c-2.67,3-5.28,3-4.32-2.94.55-3.54,1.93-6.83,3.43-10.59.13-.24.27-1.54-1.61-2.05l-.37.46c-1.86-1.58-4.62-.1-6.67,1.51a17.51,17.51,0,0,0-4.26,5,19.74,19.74,0,0,0-2.13,5.52,3.84,3.84,0,0,0,.08,1.54,28.07,28.07,0,0,1-1.49,3.06c-1.48,2.57-3.78,4.77-5.64,3.19-2.21-1.94-2.21-7.4-1.63-12.12a120.08,120.08,0,0,1,3.69-16.88c.9-3.29,1.92-6.47,2.93-9.53,3.44-.16,16.16-1.54,17.82-1.75l1.31-.2c.71,0-.22-1-2.47-1-3,.18-12.94.91-15.91,1.2a99.32,99.32,0,0,1,3.3-10c.65-2.35-2.67-2.31-3.41-1.26-1.24,2.58-2.92,8.95-4.05,11.89-2.62.41-6.54.92-8.22,1.59-1.19.45-1.09,1,.7.73,2.38-.3,4-.38,6.89-.8l-.24.47c-.74,1.29-7.43,19.75-10.66,26.68-2.49,5.28-5.59,6-4.76.72a45.21,45.21,0,0,1,2.42-8c.76-2-2.22-1-2.35-.65a24.56,24.56,0,0,0-2.25,5.38c-1.13.74-2.19,1.34-4.09,2.54.8-4,1.49-8.5,1.94-13a1.31,1.31,0,0,0-.8-1.32c-.35-.25-1,.09-1.19.44a17,17,0,0,0-1.34,1.75c-2.09,3.16-9.68,14.25-12.47,11.82-1.14-2,1.82-7.43,7.41-8.37,0-.6-.33-.84-1-1-3.07-.78-6.2,1.28-8,4a9,9,0,0,0-1.74,4.5,25.37,25.37,0,0,1-2.11,3.24c-1.58,1.86-4.07,1.69-3.51-2a44.22,44.22,0,0,1,2.43-8c.75-2-2.23-1-2.36-.65a24.69,24.69,0,0,0-2.44,6c-2.64-1.13-7.44-1.17-10-.73,4-8.09,9.79-24.68,6.69-34.7-1.89-6-6.11-7.84-11.49-5.94-9.56,3.82-19.29,20.44-23.88,29.7,1.54-10.87,6.54-22.62,10.56-33.08,1-2.11-2.17-3.72-4.63.37-8.77,15.93-14.07,46.76-11.53,55.58,2.27-.89,3.84-2.16,3.54-4.66-1.37-13.19,11.54-34.36,21.67-42.32,7.47-5.64,14.08-4.31,13.86,6-.19,8.53-4.62,21.35-8.48,29.68-11.44,2.83-38.59,13.85-40.83,29.57-.56,3.9,1.28,6.55,4.12,6.85a14.55,14.55,0,0,0,5.58-.35c12.28-3.53,27.52-22.87,34.54-34.81A27.39,27.39,0,0,1,91.24,138c-.1.5-.21,1-.26,1.47a5.69,5.69,0,0,0,.51,3.45A3.21,3.21,0,0,0,95,144.21c2.23-.71,3.38-2.49,4.57-4.47a3,3,0,0,0,1,1.4c4.32,3.17,13.24-8.72,15-11.65-.42,3.07-1.5,8.86-2.4,12.28-6.39,4.84-16.67,13.86-17.13,24-.06,3,1.68,4.66,4.43,3.65a12.38,12.38,0,0,0,3.48-1.94c6.16-5.31,10.58-17.78,12.55-26.39a27.68,27.68,0,0,0,3.93-2.31c-.09.45-.19.9-.23,1.32a6.64,6.64,0,0,0,1.2,4.77c2.89,3,5.84-1.65,7.45-4.82a144.92,144.92,0,0,0,6.91-17.86c-2.33,9.19-4.51,22.18-1.31,27.59a4.46,4.46,0,0,0,3.85,2.45c2.61.06,4.9-1.79,6.26-4.24a20.81,20.81,0,0,0,1.2-2.41,1.75,1.75,0,0,0,1.34.21c2.74-.42,7.15-7.19,8.5-9.06-1.26,3.29-3.81,11.41.55,12.58,2.59.65,5.63-2.61,7.11-5.3.39-.69.7-1.3,1-1.87.07,2.72.68,5.2,2.48,6.57,1.87.87,3.09-.41,4.07-1.93,2.34-4,2.7-4.44,5.16-8.42A.84.84,0,0,0,175.67,137.09ZM56.79,163.29c-2.06,1.73-19.61,13.09-16,2.14C44.66,154,65.2,141.66,77,139A78.83,78.83,0,0,1,56.79,163.29ZM99.6,167.9c-2.75,1.48-2.46-1.35-1.56-4.18,2.29-7.53,7.91-15,14.77-19.95C110.14,152,107.18,162.85,99.6,167.9Zm48.2-24.66c-1-1.92,6.07-12,9.13-11.3C154.12,136.14,148.85,143.85,147.8,143.24Z"/></g></g></svg>